<?xml version="1.0" encoding="UTF-8" standalone="no"?>
<!-- Created with Inkscape (http://www.inkscape.org/) -->

<svg
   xmlns:dc="http://purl.org/dc/elements/1.1/"
   xmlns:cc="http://creativecommons.org/ns#"
   xmlns:rdf="http://www.w3.org/1999/02/22-rdf-syntax-ns#"
   xmlns:svg="http://www.w3.org/2000/svg"
   xmlns="http://www.w3.org/2000/svg"
   xmlns:sodipodi="http://sodipodi.sourceforge.net/DTD/sodipodi-0.dtd"
   xmlns:inkscape="http://www.inkscape.org/namespaces/inkscape"
   width="256"
   height="256"
   viewBox="0 0 256 256"
   id="svg4136"
   version="1.1"
   inkscape:version="0.91 r"
   sodipodi:docname="logo.svg">
  <defs
     id="defs4138" />
  <sodipodi:namedview
     id="base"
     pagecolor="#ffffff"
     bordercolor="#666666"
     borderopacity="1.0"
     inkscape:pageopacity="0.0"
     inkscape:pageshadow="2"
     inkscape:zoom="2.3945312"
     inkscape:cx="128"
     inkscape:cy="128"
     inkscape:document-units="px"
     inkscape:current-layer="layer1"
     showgrid="false"
     units="px"
     inkscape:window-width="1215"
     inkscape:window-height="776"
     inkscape:window-x="65"
     inkscape:window-y="24"
     inkscape:window-maximized="1" />
  <metadata
     id="metadata4141">
    <rdf:RDF>
      <cc:Work
         rdf:about="">
        <dc:format>image/svg+xml</dc:format>
        <dc:type
           rdf:resource="http://purl.org/dc/dcmitype/StillImage" />
        <dc:title></dc:title>
      </cc:Work>
    </rdf:RDF>
  </metadata>
  <g
     inkscape:label="Layer 1"
     inkscape:groupmode="layer"
     id="layer1"
     transform="translate(0,-796.36227)">
    <path
       style="fill:#ffffff;fill-opacity:1;fill-rule:evenodd;stroke:#000000;stroke-width:1px;stroke-linecap:butt;stroke-linejoin:miter;stroke-opacity:1"
       d="m 35.079935,993.89571 58.466558,0.83524 36.332787,34.66235 35.49756,-33.82711 41.3442,2.08809 0.62642,-55.12563 10.59707,-15.86949 -11.11909,-11.69331 -0.52201,-61.8075 -44.68516,-0.83523 -37.58564,-37.16803 -36.332793,35.49755 -52.619902,0.83524 22.969005,16.28711 -0.417619,29.23328 -27.980424,30.06852 30.486134,27.14519 0.417618,27.5628 -25.057096,12.11093 0,0"
       id="path4776"
       inkscape:connector-curvature="0"
       sodipodi:nodetypes="cccccccccccccccccccc" />
    <g
       id="g4749"
       transform="matrix(1.0180223,0,0,1.0180223,2.0134042,-19.21316)">
      <path
         style="fill:#85242e"
         d="m 118.90165,1038.7028 c -2.36312,-2.3111 -4.61134,-4.4452 -4.99603,-4.7424 -0.3847,-0.2972 -4.86589,-4.6331 -9.95822,-9.6353 -5.09232,-5.0023 -9.43608,-9.1906 -9.652798,-9.3075 -0.216718,-0.1168 -3.281126,-3.0395 -6.809795,-6.4948 -3.528669,-3.4553 -6.559203,-6.3843 -6.734518,-6.5088 -0.417241,-0.2963 -7.142126,-0.4384 -26.996957,-0.5707 -25.689119,-0.1711 -31.774661,-0.2927 -32.313424,-0.6457 -0.253319,-0.166 -0.460243,-0.4488 -0.459831,-0.6286 0.0014,-0.59051 0.773876,-1.61183 1.323586,-1.7498 0.295549,-0.0742 2.029466,-0.85052 3.853147,-1.72519 1.82368,-0.87468 4.588938,-2.20159 6.145016,-2.9487 1.55608,-0.74711 3.039903,-1.41523 3.297384,-1.48471 0.257484,-0.0695 1.412402,-0.56662 2.566487,-1.10475 1.154084,-0.53813 2.637907,-1.17249 3.297384,-1.4097 0.659477,-0.23721 2.328761,-0.96281 3.709519,-1.61245 1.380759,-0.64964 2.612668,-1.18117 2.737577,-1.18117 0.124907,0 1.412204,-0.58453 2.860659,-1.29897 1.448453,-0.71443 2.761495,-1.29897 2.917869,-1.29897 0.156374,0 0.549636,-0.1372 0.873917,-0.30489 l 0.5896,-0.30489 0,-3.15889 0,-3.15889 -0.749405,-0.60226 c -0.412173,-0.33125 -4.886124,-4.62836 -9.942114,-9.54913 -5.055989,-4.92077 -9.41753,-9.08789 -9.692312,-9.26025 -0.522383,-0.32767 -1.019581,-0.79887 -10.59128,-10.03754 -8.99491,-8.68194 -9.666265,-9.31822 -10.041599,-9.51697 -0.553813,-0.29327 -9.6137966,-9.09478 -9.9123919,-9.6296 -0.261744,-0.46881 -0.1329935,-0.61597 4.596354,-5.25356 6.0133769,-5.89671 19.1169949,-18.97439 25.7116179,-25.66073 2.713465,-2.75121 5.594338,-5.58396 6.401937,-6.29501 0.807602,-0.71105 4.21117,-4.01078 7.563487,-7.33275 l 6.095123,-6.03993 -0.06943,-1.88804 c -0.06198,-1.68534 -0.123068,-1.94593 -0.569035,-2.42728 -0.619784,-0.66896 -1.887552,-1.50453 -2.748885,-1.81175 -0.357804,-0.12762 -1.257091,-0.63177 -1.998415,-1.12032 -1.273552,-0.83931 -2.872517,-1.85132 -5.844298,-3.69893 -0.714433,-0.44417 -1.793577,-1.08511 -2.398098,-1.42431 -1.908882,-1.07106 -2.865397,-1.62826 -3.996829,-2.32827 -0.604521,-0.37401 -1.548772,-0.91927 -2.098336,-1.21169 -0.549564,-0.29242 -1.268993,-0.72699 -1.598732,-0.96573 -0.329738,-0.23873 -0.824346,-0.5463 -1.099128,-0.6835 -0.274782,-0.1372 -0.994211,-0.55736 -1.598732,-0.93369 -0.60452,-0.37633 -2.268201,-1.28112 -3.697067,-2.01064 -3.509394,-1.79175 -5.895324,-3.40767 -5.895324,-3.99274 0,-0.9612 -0.178071,-0.94962 12.53942,-0.81525 6.56764,0.0694 14.09945,0.16896 16.737357,0.22127 2.637908,0.0523 10.506666,0.14887 17.48613,0.21458 l 12.689934,0.11945 6.293817,-6.31203 c 3.461598,-3.47162 6.383115,-6.31204 6.492256,-6.31204 0.109142,0 4.830932,-4.59674 10.492866,-10.21499 5.66193,-5.61824 12.36279,-12.26794 14.89078,-14.77711 2.74397,-2.72353 4.80308,-4.61192 5.1093,-4.68568 0.46524,-0.11206 1.55336,0.91367 11.70105,11.03009 6.15345,6.1345 14.286,14.27315 18.07231,18.0859 3.78632,3.81274 8.63782,8.67926 10.78112,10.81449 l 3.89691,3.88223 9.37541,0.12683 c 5.15648,0.0698 12.99174,0.12683 17.4117,0.12683 6.804,0 8.07344,0.0448 8.27859,0.29195 0.18997,0.22891 0.17027,3.97959 -0.0912,17.36989 -0.33622,17.21559 -0.32321,17.90995 0.33547,17.90995 0.33254,0 5.69147,5.27574 21.0504,20.72366 4.28382,4.30864 10.32545,10.37882 13.42583,13.4893 3.1004,3.11048 5.64089,5.80557 5.64553,5.98908 0.005,0.18351 -1.49296,1.75727 -3.32801,3.49723 -1.83506,1.73996 -4.39749,4.17284 -5.6943,5.4064 -1.29681,1.23356 -2.60569,2.39956 -2.90859,2.59111 -0.4799,0.30348 -2.07889,1.77007 -8.33807,7.64762 -1.75413,1.64718 -5.89178,5.56116 -13.9425,13.18876 -0.9601,0.90966 -2.12917,1.90047 -2.59794,2.2018 -0.46874,0.30134 -1.45928,1.18155 -2.20119,1.95604 l -1.34893,1.40817 -0.0255,3.16693 c -0.0631,7.84129 -0.35748,18.68805 -0.54421,20.05354 -0.11273,0.82435 -0.21053,3.22873 -0.21733,5.34308 l -0.0124,3.84431 -0.68931,0.288 c -0.58827,0.2458 -2.14784,0.2625 -10.64155,0.1143 -5.47374,-0.096 -12.79262,-0.2198 -16.26418,-0.2762 l -6.31192,-0.1024 -4.57394,4.3174 c -2.51564,2.3745 -4.80934,4.4612 -5.09709,4.6371 -0.50549,0.3089 -5.05275,4.5418 -7.7598,7.2232 -2.90372,2.8763 -15.46235,14.6926 -15.81925,14.8842 -0.41278,0.2216 -2.81547,2.4429 -7.95939,7.3586 -2.12768,2.0332 -3.42173,3.1276 -3.69707,3.1266 -0.28078,0 -1.87225,-1.4184 -4.7202,-4.2038 z m 5.44387,-20.5769 c 1.40039,-1.3179 2.63549,-2.3962 2.74467,-2.3962 0.10918,0 1.34652,-1.1105 2.74964,-2.4678 1.40312,-1.3573 3.04573,-2.8818 3.65025,-3.3879 2.33421,-1.954 2.79778,-2.3997 2.79778,-2.6899 0,-0.352 -4.37881,-4.6327 -4.74566,-4.6394 -0.13707,0 -0.58671,0.2919 -0.9992,0.6541 -0.41249,0.3622 -0.97481,0.7997 -1.24959,0.9721 -0.27478,0.1724 -1.91164,1.6746 -3.63747,3.3382 -2.44363,2.3555 -3.2555,3.0247 -3.66954,3.0247 -0.42399,0 -1.38019,-0.8398 -4.72109,-4.1467 -2.30417,-2.2807 -4.22337,-4.18 -4.26487,-4.2207 -0.13095,-0.1284 -5.28991,4.8347 -5.28991,5.089 0,0.2931 7.7212,7.9682 8.52525,8.4744 0.31214,0.1964 1.55522,1.356 2.76239,2.5767 1.20716,1.2207 2.33127,2.2185 2.49802,2.2175 0.16674,0 1.44894,-1.0803 2.84933,-2.3981 z m 2.43949,-12.8573 c 2.14901,-2.0715 3.90988,-3.87 3.91304,-3.9968 0.009,-0.3747 2.5891,-3.00497 7.48831,-7.63489 7.16048,-6.76689 6.5693,-6.12494 6.41211,-6.9628 -0.0744,-0.39643 -0.2284,-0.72078 -0.34229,-0.72078 -0.11389,0 -2.33555,2.0502 -4.93702,4.55601 -7.73021,7.44596 -9.66718,9.23305 -10.00739,9.23305 -0.17754,0 -1.75956,-1.43886 -3.51558,-3.19746 -1.75603,-1.75861 -3.32873,-3.19704 -3.49489,-3.19652 -0.16616,5.9e-4 -2.04247,1.6642 -4.16959,3.69706 -2.12712,2.03287 -3.98377,3.69613 -4.12588,3.69613 -0.14212,0 -3.70754,-3.41791 -7.92316,-7.59534 l -7.664767,-7.59534 5.595557,-5.4322 c 3.07756,-2.98771 7.97868,-7.82894 10.89137,-10.7583 2.91268,-2.92935 8.93791,-8.82268 13.38937,-13.09627 4.45147,-4.27359 9.7123,-9.34857 11.69073,-11.27773 1.97843,-1.92916 6.95059,-6.7359 11.04923,-10.68165 4.09865,-3.94574 7.42601,-7.28909 7.39414,-7.42966 -0.0319,-0.14057 -1.45928,-1.67627 -3.172,-3.41265 -1.71273,-1.73639 -3.9075,-4.05636 -4.87726,-5.15548 -1.90687,-2.16124 -7.08998,-7.29384 -7.36585,-7.29408 -0.0931,-8e-5 -1.69766,1.4612 -3.56576,3.24728 -1.8681,1.78609 -3.54556,3.32748 -3.7277,3.42532 -0.18213,0.0978 -1.05693,0.86223 -1.94398,1.69865 -0.88706,0.83642 -1.9662,1.76961 -2.3981,2.07375 -0.4319,0.30415 -1.14498,0.96732 -1.58463,1.47372 -0.85762,0.98782 -6.01187,6.3508 -6.4727,6.73482 -0.15269,0.12724 -1.42942,1.31049 -2.83718,2.62944 -1.40776,1.31895 -3.17134,2.93103 -3.91906,3.58238 -0.74772,0.65136 -4.68685,4.4325 -8.75363,8.40253 -9.769404,9.53701 -11.253839,10.95956 -11.683748,11.19671 -0.547621,0.30207 -13.886704,13.29605 -13.95755,13.59644 -0.100435,0.42585 2.516983,3.21068 9.240936,9.83199 4.340579,4.27432 6.317552,6.35252 6.271343,6.59247 -0.137121,0.71201 -0.746412,0.489 -1.806611,-0.66123 -0.579736,-0.62897 -4.191033,-4.25538 -8.025108,-8.05869 -6.727716,-6.67373 -6.966352,-6.93648 -6.836601,-7.52723 0.129779,-0.59089 -0.08332,-0.82508 -6.144118,-6.75237 l -6.278562,-6.14026 -0.14659,-6.73557 c -0.08063,-3.70456 -0.218287,-6.87168 -0.305915,-7.03803 -0.08763,-0.16635 -0.223251,-6.50633 -0.301383,-14.08883 -0.07813,-7.5825 -0.22953,-15.0004 -0.336441,-16.48422 -0.106909,-1.48383 -0.234047,-4.72126 -0.282526,-7.1943 l -0.08814,-4.49643 9.064214,-9.04283 c 4.985319,-4.97355 9.145008,-9.04283 9.243753,-9.04283 0.189536,0 4.053647,3.72581 13.819187,13.32458 l 5.93182,5.83052 7.2563,-7.1059 c 3.99097,-3.90824 7.25631,-7.25106 7.25631,-7.42848 0,-0.49675 -18.9969,-19.40899 -19.49588,-19.40899 -0.572045,0 -2.98137,2.19867 -12.537112,11.44093 -2.477015,2.39575 -3.376408,3.1475 -3.765683,3.1475 -0.404867,0 -2.146385,1.61345 -8.358522,7.74386 -4.315904,4.25912 -7.957722,7.77023 -8.092928,7.80247 -0.344003,0.082 -0.504148,-3.34468 -0.524884,-11.23115 -0.0093,-3.52743 -0.109471,-6.95309 -0.222659,-7.61256 -0.28002,-1.63152 -0.258731,-3.94813 0.04958,-5.39572 0.140457,-0.65948 0.260726,-2.34274 0.26726,-3.74059 0.01111,-2.3772 -0.01685,-2.56829 -0.432401,-2.95544 -0.531946,-0.49558 -0.539222,-0.56173 -0.11355,-1.0321 0.433836,-0.47938 1.116435,-0.46448 1.567759,0.0342 0.19894,0.21982 0.502122,0.39968 0.673739,0.39968 0.306773,0 2.328649,1.90547 10.97361,10.3418 2.393407,2.33565 4.480973,4.24663 4.639038,4.24663 0.158065,0 2.021582,-1.68616 4.141151,-3.74703 2.119571,-2.06086 5.38562,-5.23085 7.257889,-7.04441 2.182165,-2.11374 3.383642,-3.41927 3.347063,-3.63693 -0.03138,-0.18676 -2.058939,-2.35792 -4.50568,-4.82481 l -4.448619,-4.48525 -14.836084,-0.0375 c -35.360481,-0.0894 -38.57377,-0.0747 -38.490464,0.1752 0.09687,0.29062 2.084291,1.39996 6.867696,3.83341 1.978431,1.00649 3.832342,1.99644 4.119802,2.1999 0.287462,0.20346 2.300012,1.27171 4.472335,2.37389 2.666772,1.35306 4.166968,2.00397 4.618654,2.00397 1.258038,0 1.203795,-0.57677 1.456547,15.48772 0.12624,8.02363 0.228566,16.29707 0.227389,18.38542 -0.0022,3.87732 0.110303,5.2958 0.419957,5.2958 0.220583,0 1.691069,-1.52568 3.370495,-3.49699 0.714433,-0.83861 2.04699,-2.30583 2.961239,-3.26051 1.461259,-1.52587 1.686722,-1.69218 1.864477,-1.3753 0.247939,0.44199 -0.14855,1.11872 -1.042817,1.77989 -0.336023,0.24843 -0.795991,0.76776 -1.022153,1.15408 -0.226163,0.38632 -0.888809,1.197 -1.472548,1.80152 -1.878166,1.94503 -3.599895,3.88215 -3.952071,4.44647 -0.409162,0.65565 -1.122328,0.73391 -1.277583,0.14021 -0.05888,-0.22515 -0.217947,-0.38252 -0.353485,-0.34972 -0.135539,0.0328 -4.755238,4.50495 -10.265997,9.93812 -6.851601,6.75513 -10.019564,10.00997 -10.019564,10.29435 0,0.63391 19.670402,19.78473 20.364988,19.82706 0.285145,0.0174 0.64536,0.0399 0.800475,0.05 0.248367,0.0162 9.275136,8.74709 9.660403,9.34378 0.235063,0.36406 -0.06239,0.8941 -0.464164,0.82711 -0.199658,-0.0333 -2.24871,-1.88158 -4.553448,-4.10732 -2.30474,-2.22573 -4.298193,-4.04679 -4.429896,-4.04679 -0.185217,0 -0.209252,3.83643 -0.106102,16.93657 0.07335,9.31511 0.176346,17.16546 0.228884,17.44523 0.05254,0.27976 -0.04319,0.84067 -0.212747,1.24646 -0.304832,0.72957 -1.135791,1.28994 -2.803056,1.89028 -1.065038,0.3835 -4.35027,1.67092 -6.095166,2.38857 -0.934259,0.38425 -1.968438,0.79348 -2.298177,0.90941 -0.329738,0.11592 -0.779381,0.28321 -0.999207,0.37176 -0.219826,0.0886 -0.752837,0.30199 -1.184471,0.47431 -0.472267,0.18854 -0.711012,0.38479 -0.599524,0.49283 0.219156,0.21237 6.675295,0.36878 21.068698,0.51041 5.770423,0.0568 13.704047,0.15847 17.630279,0.22596 l 7.138601,0.12272 1.454583,-1.36641 c 0.800019,-0.75153 2.191807,-2.08226 3.092858,-2.95718 1.38181,-1.34174 1.700553,-1.5618 2.036097,-1.4057 0.218801,0.10178 3.740156,3.46272 7.825236,7.46875 6.95491,6.82037 7.46947,7.28087 8.08832,7.23917 0.60946,-0.041 0.96165,0.2512 4.52538,3.755 3.27131,3.2164 3.94726,3.7923 4.40368,3.7521 0.39738,-0.035 1.5668,-1.0379 4.44647,-3.8138 z M 68.728663,978.42566 c -0.124469,-0.32738 -0.134347,-0.73239 -0.02559,-1.04917 0.100625,-0.29309 0.110179,-2.45815 0.02212,-5.01239 -0.261125,-7.57423 -0.22701,-13.58922 0.07707,-13.58922 0.331699,0 11.529982,10.94499 11.529982,11.26919 0,0.13279 -1.161119,1.36111 -2.580265,2.72959 -2.780123,2.68087 -3.66947,3.44757 -4.913791,4.23615 -0.439651,0.27863 -1.109276,0.83115 -1.488053,1.22783 -0.583683,0.61127 -0.820575,0.72123 -1.553718,0.72123 -0.753358,0 -0.891201,-0.0688 -1.067755,-0.53321 z M 48.876421,937.06705 c -5.12151,-5.01479 -9.311834,-9.17793 -9.311834,-9.25142 0,-0.22987 18.373607,-18.49819 18.669838,-18.56285 0.154526,-0.0337 0.326511,0.10117 0.382189,0.29976 0.05568,0.1986 0.110251,4.27299 0.121268,9.0542 0.01101,4.78121 0.03107,12.94223 0.04456,18.13561 0.02183,8.4009 -0.0096,9.44252 -0.28483,9.44252 -0.170149,0 -4.499687,-4.10302 -9.621191,-9.11782 z m 126.653519,56.57482 c 4.63106,0.0503 10.48848,0.14369 13.01647,0.20753 2.528,0.0638 4.70953,0.0387 4.84787,-0.0559 0.26907,-0.18399 0.36583,-2.3707 0.53918,-12.18494 0.0509,-2.88423 0.17386,-5.40224 0.27316,-5.59556 0.20363,-0.39646 0.48695,-14.29826 0.30554,-14.99199 -0.0644,-0.24616 -0.21896,-0.44577 -0.34354,-0.44358 -0.12457,0.002 -0.8672,0.65417 -1.65029,1.44885 -1.64297,1.66729 -5.93994,6.00991 -9.26772,9.36617 -1.264,1.27481 -2.43307,2.47537 -2.59794,2.6679 -0.93133,1.08758 -4.88914,4.90109 -5.1835,4.99452 -0.19144,0.0607 -0.46227,0.32387 -0.60186,0.58469 -0.27942,0.52209 -0.99331,0.91805 -1.65522,0.91805 -0.47948,0 -1.76861,-1.1526 -7.23271,-6.46668 -2.78584,-2.70936 -3.74262,-3.52763 -3.97233,-3.39731 -0.41282,0.23421 -12.98231,12.27064 -13.21524,12.65479 -0.10229,0.16871 -0.66434,0.80948 -1.249,1.42393 -0.58467,0.61446 -1.06303,1.24023 -1.06303,1.39059 0,0.15036 1.28148,1.58577 2.84774,3.1898 1.56626,1.60404 3.04328,3.15904 3.28226,3.45558 l 0.43452,0.53915 3.86207,0.0261 c 2.12414,0.0143 4.86128,0.0925 4.86128,0.0925 z m -29.09401,-9.33724 c 1.67505,-1.55347 9.6514,-9.13609 11.80665,-11.22384 1.02886,-0.99664 2.15297,-2.20717 2.49802,-2.69006 l 0.62737,-0.878 -0.99469,-0.82253 c -0.54708,-0.45239 -3.03933,-2.80096 -5.53834,-5.21904 -8.02821,-7.76823 -9.87613,-9.49248 -10.17336,-9.49248 -0.27237,0 -2.03086,1.64381 -11.72106,10.95663 -2.11582,2.03342 -3.84695,3.83858 -3.84695,4.01147 0,0.29285 15.69388,16.30553 16.04924,16.37526 0.089,0.0175 0.67092,-0.44036 1.29312,-1.01741 z m 21.44969,-18.97405 c 2.79024,-2.65939 8.80402,-8.39235 13.36397,-12.73989 4.55995,-4.34755 11.43949,-10.90503 15.28788,-14.57219 7.96442,-7.58937 8.49586,-8.11724 8.49586,-8.43877 0,-0.29505 -1.60317,-1.94293 -20.88227,-21.46481 -23.69175,-23.99008 -26.08048,-26.43687 -26.08048,-26.71442 0,-0.28235 2.98631,-3.36159 3.26013,-3.36159 0.0946,0 1.82896,-1.59081 3.85418,-3.53514 3.92862,-3.77171 4.84378,-4.38415 5.67802,-3.79982 0.64477,0.45161 13.57934,13.75032 14.93207,15.35244 2.24998,2.66478 7.77671,8.03972 8.12812,7.90488 0.27539,-0.10568 0.31972,-0.61974 0.32557,-3.77572 0.004,-2.00935 0.055,-6.30627 0.11399,-9.5487 0.059,-3.24243 0.17406,-9.5824 0.25579,-14.08883 0.0817,-4.50642 0.13833,-8.213 0.12578,-8.23684 -0.0674,-0.12809 -8.51324,-0.25784 -24.34064,-0.37396 l -17.74314,-0.13017 -2.39089,2.36144 c -1.31499,1.29879 -2.39089,2.45455 -2.39089,2.56834 0,0.34205 -3.86365,4.11096 -4.2143,4.11096 -0.39852,0 -13.17191,-12.87324 -13.17191,-13.27488 0,-0.15804 1.43886,-1.70175 3.19746,-3.43046 1.75861,-1.72872 3.19747,-3.28983 3.19747,-3.46913 0,-0.17929 -0.41417,-0.72691 -0.92036,-1.21693 -0.5062,-0.49001 -1.26005,-1.34057 -1.67521,-1.89014 -0.41517,-0.54956 -2.54149,-2.86813 -4.72516,-5.15238 -2.18367,-2.28425 -4.54778,-4.77977 -5.25357,-5.5456 -0.70579,-0.76584 -1.42478,-1.39243 -1.59776,-1.39243 -0.40407,0 -15.40448,14.98601 -15.40448,15.38969 0,0.167 1.16907,1.47011 2.59794,2.89581 1.42886,1.42569 2.59794,2.73973 2.59794,2.92008 0,0.18034 -2.34886,2.66306 -5.21968,5.51714 -4.87273,4.84431 -5.20395,5.21864 -4.98297,5.63155 0.13019,0.24327 0.37457,0.49521 0.54305,0.55986 0.21239,0.0815 1.91866,-1.49392 5.56434,-5.13766 4.83612,-4.83353 5.24146,-5.29155 5.05165,-5.70815 -0.1846,-0.40514 -0.0719,-0.5783 1.06731,-1.64056 0.70052,-0.65319 1.7111,-1.5373 2.24572,-1.9647 1.51649,-1.21234 4.51416,-4.13616 4.63839,-4.52412 0.27732,-0.86601 0.99267,-0.35559 4.63853,3.30966 3.67463,3.69418 4.26606,4.53412 3.19259,4.53412 -0.31146,0 -1.42871,-0.97991 -3.67624,-3.22435 -2.97456,-2.97046 -3.27213,-3.21348 -3.77892,-3.08629 -0.30257,0.0759 -1.41357,0.93982 -2.46889,1.91972 -4.47126,4.15175 -5.21997,4.87838 -5.16946,5.01706 0.0951,0.26118 7.72896,7.96705 7.89257,7.96705 0.0873,0 1.68553,-1.52879 3.55162,-3.39731 1.8661,-1.86851 3.53067,-3.3973 3.69905,-3.3973 0.3909,0 12.98767,12.60556 12.98785,12.99692 8e-5,0.1609 -2.7721,3.08033 -6.16039,6.48762 -3.3883,3.4073 -7.48141,7.58899 -9.09582,9.29263 -3.60788,3.80734 -2.80321,3.00828 -8.02545,7.96942 -2.41809,2.29719 -5.02602,4.85797 -5.79541,5.69064 -0.76939,0.83266 -4.90507,5.00181 -9.1904,9.26478 -4.285328,4.26296 -8.173228,8.15552 -8.639778,8.65012 -0.466548,0.49461 -2.98331,3.08027 -5.592806,5.74591 l -4.744536,4.84662 5.782465,5.8449 c 3.180355,3.2147 7.35976,7.44077 9.287565,9.39128 1.92781,1.9505 3.62558,3.54674 3.77282,3.54718 0.14725,4e-4 2.10057,-1.76567 4.34072,-3.9247 2.24015,-2.15903 4.32292,-4.08694 4.62839,-4.28425 0.30547,-0.1973 2.38966,-2.14179 4.63153,-4.32109 l 4.07613,-3.96237 -0.3529,-0.69629 c -0.19409,-0.38297 -1.0841,-1.46464 -1.97779,-2.40373 -1.73468,-1.82278 -3.12371,-3.5254 -3.12371,-3.82891 0,-0.47853 0.58195,-1.10073 2.65552,-2.8392 1.23233,-1.03318 3.27478,-2.92961 4.53878,-4.21429 1.26399,-1.28468 3.06257,-2.97621 3.99683,-3.75895 2.29387,-1.92186 8.49383,-8.02618 9.22463,-9.08234 0.32372,-0.46784 0.92109,-1.02351 1.32749,-1.23482 0.40641,-0.21131 1.99672,-1.64959 3.53402,-3.19618 1.53731,-1.54658 2.89349,-2.81197 3.01375,-2.81197 0.3415,0 11.87712,-11.3899 11.87712,-11.72709 0,-0.49425 -1.40705,-2.03323 -7.54401,-8.25137 -3.21495,-3.25747 -5.84399,-6.00773 -5.84231,-6.11168 0.002,-0.10396 0.0852,-0.31879 0.18553,-0.47741 0.27278,-0.43115 1.02469,-0.0164 1.83569,1.01255 0.37047,0.47004 2.29302,2.52278 4.27234,4.56166 8.69714,8.95885 7.99651,8.1719 7.94747,8.92655 -0.0426,0.6554 0.40355,1.13876 9.98923,10.82289 5.5186,5.57527 13.40902,13.55414 17.53428,17.73083 4.12526,4.17669 9.8778,9.99851 12.78343,12.93738 2.90564,2.93888 5.36463,5.48931 5.46443,5.66763 0.12849,0.22962 0.0729,0.42466 -0.19059,0.66842 -0.20462,0.18931 -4.50875,4.29777 -9.56474,9.12991 -5.05598,4.83214 -10.60679,10.13047 -12.33511,11.77406 -1.72832,1.6436 -6.68809,6.36069 -11.0217,10.48242 -4.33361,4.12173 -7.93522,7.61947 -8.00358,7.77276 -0.13809,0.30968 0.41106,1.02027 0.78847,1.02027 0.1329,0 2.52455,-2.17587 5.31478,-4.83527 z"
         id="path4753"
         inkscape:connector-curvature="0"
         sodipodi:nodetypes="csscssscccsscssssssscccsssscssssscsssssssscssssssscsssssssscsscsssscssssscscssscccccsccscccccsscscssssscscsccccscsssscssscssssscsscscscssssscssssssscssssscssscsssssscsssssssssssscscscssssssssssssssssssccscsssccssccscsscsscsccsccsssssssscsscssssscccccccssscsssccssscccccsscssssscsssssssssssccsscscssssssccsssssssssscsscssscscssscssssssscsscscsccsssssssssssccsscsssccssscsss" />
      <path
         style="fill:#1f181d"
         d="m 121.7467,1041.0781 c -0.96025,-0.9092 -3.03062,-2.9138 -4.60081,-4.4547 -1.57019,-1.5409 -3.022,-2.893 -3.22626,-3.0047 -0.20425,-0.1116 -4.49513,-4.2613 -9.53528,-9.2213 -5.04015,-4.9601 -9.648692,-9.4012 -10.241204,-9.8691 -0.592512,-0.4679 -3.380301,-3.1094 -6.195086,-5.8699 -2.814785,-2.7605 -5.657978,-5.5217 -6.318204,-6.136 l -1.200414,-1.1169 -11.689362,-0.1325 c -6.42915,-0.073 -19.153443,-0.1807 -28.276206,-0.2396 -9.122764,-0.059 -17.052676,-0.1543 -17.622026,-0.212 -1.276969,-0.1296 -1.599565,-0.4446 -1.228905,-1.2001 0.14612,-0.29782 0.400566,-0.608 0.565435,-0.68929 0.164869,-0.0813 1.244013,-0.57682 2.398098,-1.10116 1.154084,-0.52435 4.107434,-1.92747 6.562996,-3.11805 2.455564,-1.19059 4.590289,-2.1647 4.743833,-2.1647 0.153544,0 1.202023,-0.44493 2.32995,-0.98872 1.127927,-0.54379 2.590349,-1.18511 3.249826,-1.42516 0.659477,-0.24005 2.26861,-0.92778 3.575853,-1.52829 1.307244,-0.60051 2.701138,-1.20681 3.097543,-1.34734 0.396406,-0.14053 1.647921,-0.71452 2.781144,-1.27553 1.133221,-0.56101 2.425043,-1.1182 2.870713,-1.23821 0.445669,-0.12 1.026366,-0.43425 1.290435,-0.69832 0.443062,-0.44306 0.473432,-0.60012 0.39342,-2.03448 -0.04769,-0.8549 -0.09423,-2.2885 -0.103416,-3.18577 l -0.01671,-1.6314 -0.801249,-0.58925 c -0.440686,-0.32408 -3.925422,-3.6367 -7.743857,-7.36136 -11.353812,-11.075 -11.648686,-11.35869 -12.000423,-11.54501 -0.377552,-0.2 -1.284617,-1.05723 -9.430937,-8.91275 -8.481033,-8.17829 -10.845117,-10.41377 -11.918472,-11.27012 -1.471292,-1.17383 -9.0646397,-8.69518 -9.0646397,-8.97869 0,-0.1365 2.0908415,-2.29274 4.6463145,-4.79166 14.5730082,-14.25051 19.5282312,-19.16352 20.4992692,-20.32463 1.532902,-1.83295 11.800929,-12.01849 12.850982,-12.74774 0.479932,-0.33331 3.465951,-3.23942 6.635601,-6.45803 l 5.762999,-5.85201 -0.06752,-1.98214 -0.06752,-1.98215 -1.147988,-1.06822 c -0.631395,-0.58752 -1.461341,-1.15474 -1.844327,-1.26049 -0.382986,-0.10574 -1.360299,-0.6272 -2.171805,-1.15878 -0.811508,-0.53159 -2.213123,-1.41616 -3.114701,-1.96573 -0.901579,-0.54956 -2.238603,-1.39054 -2.971164,-1.86883 -0.73256,-0.47829 -1.828357,-1.13224 -2.435106,-1.45321 -0.606749,-0.32097 -1.957501,-1.11931 -3.001673,-1.77409 -1.044172,-0.65478 -2.48303,-1.51133 -3.197464,-1.90345 -0.714433,-0.39212 -1.793577,-1.01717 -2.398097,-1.389 -2.434275,-1.49727 -3.202972,-1.93141 -5.679144,-3.20742 -2.93887,-1.51444 -5.511979,-3.19615 -5.511979,-3.60248 0,-0.65118 0.745348,-0.7138 7.153256,-0.60096 11.43414,0.20136 20.296624,0.30623 36.412186,0.43086 l 15.887398,0.12287 6.293818,-6.31609 c 3.461598,-3.47385 6.38428,-6.31523 6.494848,-6.31419 0.110566,0.001 4.697464,-4.48481 10.193101,-9.96857 14.67071,-14.63899 19.40328,-19.25452 20.02668,-19.53144 0.55332,-0.24578 0.59617,-0.20826 6.49125,5.68244 3.26384,3.26142 7.04572,7.009 8.40419,8.32796 1.35847,1.31895 5.51055,5.51799 9.22685,9.33121 3.7163,3.81321 9.85219,9.96207 13.63531,13.66413 l 6.87841,6.73102 1.54178,0.0633 c 0.84799,0.0348 8.60119,0.1176 17.22935,0.18399 11.85362,0.0912 15.73969,0.17954 15.90087,0.36141 0.14834,0.1674 0.16978,2.34033 0.0704,7.13523 -0.0786,3.79199 -0.21127,11.49751 -0.29487,17.12338 l -0.15201,10.22885 0.55563,0.46267 c 1.85921,1.54816 9.16541,8.72483 16.58423,16.29021 4.72085,4.81413 9.42686,9.56233 10.45778,10.55154 4.69494,4.50499 13.03339,13.01406 13.03339,13.30006 0,0.3903 -11.54161,11.38037 -11.9515,11.38037 -0.0812,0 -0.5591,0.38219 -1.06202,0.84932 -2.98236,2.7701 -18.23604,17.18888 -20.16017,19.0567 -1.264,1.22701 -2.59352,2.40842 -2.95452,2.62535 -1.00572,0.6044 -3.87874,3.48445 -4.03751,4.0474 -0.0775,0.27486 -0.16557,2.52315 -0.19569,4.99619 -0.0686,5.63458 -0.34836,15.49968 -0.5809,20.48375 -0.0974,2.08834 -0.18793,4.43454 -0.2011,5.21376 -0.0222,1.31544 -0.0605,1.43344 -0.53547,1.64984 -0.38975,0.1776 -4.35939,0.1765 -16.67282,0 -10.05358,-0.1479 -16.31393,-0.1672 -16.56522,-0.051 -0.22217,0.1026 -2.38164,2.064 -4.79883,4.3586 -2.41718,2.2946 -4.64728,4.3263 -4.95576,4.5148 -0.30849,0.1886 -1.86485,1.587 -3.45859,3.1076 -1.59373,1.5207 -4.42649,4.22 -6.295,5.9986 -1.86852,1.7785 -5.40688,5.1574 -7.86301,7.5086 -2.45614,2.3513 -4.82968,4.5448 -5.27453,4.8745 -0.83152,0.6164 -2.38379,2.0491 -8.22732,7.594 -1.85334,1.7586 -3.49363,3.27 -3.64509,3.3588 -0.19227,0.1126 -0.80234,-0.3377 -2.02131,-1.4918 z m 5.88068,-22.5725 c 5.78899,-5.8685 7.26967,-7.3536 8.47705,-8.5021 1.27032,-1.2084 2.45066,-2.61 2.65077,-3.1475 0.11376,-0.3055 -0.48879,-1.015 -3.06135,-3.6048 -1.76163,-1.7733 -3.20297,-3.32877 -3.20297,-3.45648 0,-0.32494 10.4272,-10.24425 10.76877,-10.24425 0.34865,0 1.37287,0.87181 4.48579,3.81829 1.34778,1.27572 2.64707,2.42468 2.88732,2.55326 0.29647,0.15866 2.73328,0.27381 7.58442,0.35839 17.29464,0.57808 21.56533,0.31236 28.14837,0.38719 11.8663,0.13173 12.21178,0.12492 12.35311,-0.24335 0.08,-0.20839 0.18813,-4.42567 0.24039,-9.37175 0.0548,-5.19072 0.21859,-10.51374 0.38727,-12.59002 0.16967,-2.08826 0.31302,-6.78084 0.34175,-11.187 0.0438,-6.72975 0.0142,-7.59679 -0.26109,-7.65105 -0.28362,-0.0559 -2.50851,1.99525 -4.14157,3.8181 -0.36033,0.40221 -0.81964,0.73128 -1.0207,0.73128 -0.31729,0 -2.71437,2.22748 -4.21949,3.92094 -0.27478,0.30917 -1.42049,1.46442 -2.54601,2.56722 -1.12552,1.10281 -4.09317,4.07656 -6.59477,6.60833 -2.5016,2.53177 -4.69584,4.71534 -4.8761,4.85238 -0.28353,0.21555 -0.44926,0.0798 -1.2286,-1.00608 -0.83178,-1.15897 -2.91164,-3.23858 -7.22921,-7.22834 -0.93837,-0.86713 -1.70613,-1.68093 -1.70613,-1.80844 0,-0.29694 3.13031,-3.36065 13.18954,-12.90893 4.45147,-4.22536 9.21769,-8.76363 10.5916,-10.08504 1.37391,-1.32142 4.43148,-4.24424 6.79461,-6.49517 9.16677,-8.73155 9.15272,-8.71599 8.62534,-9.54697 -0.16549,-0.26074 -4.12415,-4.28424 -19.90713,-20.23313 -4.95117,-5.00322 -12.20315,-12.3324 -16.11551,-16.28708 -3.91236,-3.95469 -7.25372,-7.40057 -7.42523,-7.65751 -0.30729,-0.46036 -0.25114,-0.52695 3.84391,-4.55877 5.24037,-5.15946 5.19068,-5.12165 6.58672,-5.01215 l 1.08789,0.0853 3.55842,3.65871 c 1.95714,2.01229 3.55843,3.74526 3.55843,3.85104 0,0.19476 2.1804,2.43836 10.62822,10.93628 6.23282,6.26981 6.83343,6.71286 7.17831,5.29549 0.0802,-0.32957 0.1873,-3.47693 0.238,-6.99414 0.0543,-3.76892 0.17967,-6.64112 0.30523,-6.99446 0.12454,-0.35043 0.25025,-3.1319 0.30254,-6.69469 0.0492,-3.35234 0.18206,-6.58977 0.29517,-7.19429 0.30676,-1.63941 0.50414,-11.89162 0.23849,-12.38797 -0.19167,-0.35812 -0.41623,-0.40189 -2.06208,-0.40189 -1.23556,0 -1.97749,-0.0904 -2.24118,-0.27296 -0.31752,-0.21987 -2.76527,-0.2977 -12.58452,-0.40016 -22.40805,-0.23381 -29.83436,-0.20068 -30.33438,0.13534 -0.24267,0.16307 -1.38546,1.2995 -2.53955,2.52539 -4.00898,4.25844 -5.99159,6.19475 -6.24378,6.09798 -0.35457,-0.13606 -11.14243,-11.20874 -11.14243,-11.43661 0,-0.20002 2.30368,-2.7196 5.44288,-5.953 1.07319,-1.1054 1.95126,-2.17393 1.95126,-2.3745 0,-0.20058 -0.29502,-0.6451 -0.65559,-0.98782 -0.36058,-0.34271 -0.86536,-0.96494 -1.12174,-1.38273 -0.25638,-0.41778 -0.65831,-0.88605 -0.89318,-1.04059 -0.23487,-0.15454 -0.92164,-0.88145 -1.52616,-1.61535 -0.60452,-0.7339 -1.67296,-1.97428 -2.3743,-2.7564 -0.70135,-0.78211 -1.47068,-1.64685 -1.70964,-1.92163 -0.23896,-0.27478 -0.92413,-1.04604 -1.52261,-1.7139 -2.79606,-3.12024 -3.65135,-4.11153 -4.19518,-4.86227 -0.61172,-0.84444 -1.14812,-1.09391 -2.11465,-0.98345 -0.44851,0.0513 -0.62048,0.21025 -0.78801,0.72856 -0.15131,0.46813 -2.51551,2.96476 -8.04362,8.4942 -4.30613,4.30716 -7.82932,7.95847 -7.82932,8.11402 0,0.15555 1.23513,1.52932 2.74473,3.05284 l 2.74474,2.77002 -5.3235,5.31265 c -2.92792,2.92196 -5.41814,5.27981 -5.53382,5.23965 -0.11568,-0.0401 -1.954516,-1.80413 -4.086307,-3.91995 -2.371075,-2.35332 -4.027149,-3.84695 -4.265319,-3.84695 -0.428178,0 -0.868956,0.35525 -0.868956,0.70035 0,0.31 7.776062,8.09268 8.085802,8.09268 0.52505,0 1.30998,0.85651 1.81384,1.97925 0.42355,0.9438 1.12929,1.7672 3.75428,4.38019 12.57192,12.51441 16.5553,16.60119 16.49127,16.91934 -0.0597,0.29637 -18.75106,19.28245 -33.092854,33.61457 -2.555473,2.55375 -4.646315,4.70897 -4.646315,4.78938 0,0.15253 8.942571,9.31127 15.237626,15.60597 2.006023,2.00591 3.768163,3.64711 3.915853,3.64711 0.1477,0 2.15616,-1.82106 4.46325,-4.04679 2.30709,-2.22574 4.36705,-4.1399 4.5777,-4.25369 0.66857,-0.36117 8.77625,-8.32187 8.77625,-8.61715 0,-0.47484 -0.60172,-1.28965 -2.2858,-3.09528 -2.02149,-2.16742 -3.10992,-3.51875 -3.10992,-3.8611 0,-0.24643 1.27484,-1.50586 1.52429,-1.50586 0.24634,0 2.55688,2.23121 2.90739,2.80757 0.20636,0.33934 0.50706,0.58837 0.66822,0.5534 0.27767,-0.0603 3.55187,-3.17847 11.05046,-10.524 8.00411,-7.84073 7.36848,-7.27304 7.85307,-7.0137 0.48239,0.25817 10.68223,10.55313 11.14387,11.24779 0.1575,0.237 2.07105,2.23855 4.25233,4.44789 2.18128,2.20933 3.96597,4.14809 3.96597,4.30835 0,0.16027 -0.11953,0.45486 -0.26563,0.65465 -0.45582,0.62337 0.44759,1.48059 -12.51802,-11.87799 -2.07158,-2.13437 -3.64289,-3.59683 -3.86453,-3.59683 -0.20711,0 -1.91927,1.44672 -3.84326,3.24742 -3.34884,3.13427 -5.51962,5.08041 -8.68542,7.78661 -0.82435,0.70467 -1.60722,1.50431 -1.73971,1.77696 -0.1325,0.27266 -1.3915,1.62942 -2.79778,3.01502 -1.40629,1.3856 -2.64681,2.60818 -2.75672,2.71685 -1.5321,1.51479 -5.40727,5.06372 -5.97287,5.47004 -0.71414,0.51302 -12.21506,11.64347 -14.09009,13.6362 -0.50622,0.538 -1.04586,1.07757 -1.1992,1.19905 -0.15334,0.12147 -1.56517,1.4349 -3.137409,2.91872 -1.572239,1.48383 -3.515138,3.27951 -4.317557,3.99042 -0.802418,0.7109 -4.015445,3.78942 -7.140063,6.84115 l -5.681121,5.5486 0.282226,0.55298 c 0.155225,0.30414 3.655252,3.94561 7.77784,8.09215 4.122588,4.14654 7.526318,7.63128 7.563844,7.74386 0.185078,0.55523 -0.606243,0.0909 -1.385682,-0.81313 -1.034516,-1.19985 -3.758051,-3.95679 -10.113246,-10.23728 -3.914619,-3.8686 -4.609196,-4.64107 -4.446473,-4.94513 0.106068,-0.19818 0.192849,-0.40794 0.192849,-0.46613 0,-0.0582 -2.285164,-2.37976 -5.078138,-5.15906 l -5.07814,-5.05326 -0.102019,-7.6939 c -0.05611,-4.23164 -0.188007,-7.91872 -0.293104,-8.1935 -0.110978,-0.29016 -0.244885,-6.74094 -0.319428,-15.3878 -0.12676,-14.70419 -0.206023,-17.3815 -0.533015,-18.00394 -0.09187,-0.17489 -0.181754,-2.81702 -0.199738,-5.87141 l -0.03269,-5.55344 6.266591,-6.26896 c 3.446626,-3.44793 6.404618,-6.26896 6.573318,-6.26896 0.168698,0 0.888663,0.59373 1.599921,1.3194 0.711258,0.72567 1.967661,1.87263 2.792007,2.54881 0.824346,0.67617 2.185593,1.94846 3.024993,2.82731 4.072605,4.26398 11.912854,11.88974 12.224184,11.88974 0.19305,0 0.40597,-0.14327 0.47317,-0.31836 0.14123,-0.36805 -3.830186,-4.47181 -6.940311,-7.1716 -1.871411,-1.6245 -4.5106,-4.20827 -9.659963,-9.4571 l -2.576581,-2.62636 0.749974,-0.91524 c 0.412484,-0.50339 0.871468,-0.88807 1.019964,-0.85485 0.148495,0.0332 1.939544,1.6791 3.980109,3.65753 9.724261,9.42816 14.225498,13.85125 14.782298,14.52562 0.33447,0.4051 0.70332,0.77786 0.81966,0.82836 0.23073,0.10016 15.08865,-14.43139 15.08102,-14.74974 -0.006,-0.24949 -19.62227,-19.88894 -19.86549,-19.88894 -0.250795,0 -2.272266,1.35569 -2.468055,1.6552 -0.08747,0.13381 -0.511368,0.55804 -0.941984,0.94274 l -0.782943,0.69944 0.619898,-0.79936 c 0.340943,-0.43965 1.076758,-1.24563 1.635143,-1.79106 0.558385,-0.54544 1.015245,-1.17225 1.015245,-1.39293 0,-0.25426 -1.52337,-1.94064 -4.158836,-4.60386 -2.287359,-2.31146 -4.288272,-4.40781 -4.446472,-4.65857 l -0.287638,-0.45593 -14.795332,-0.12362 c -9.366283,-0.0783 -14.939402,-0.0528 -15.187953,0.0693 -0.248792,0.12224 -4.675233,0.14115 -12.083347,0.0516 -10.138604,-0.12253 -11.752991,-0.10207 -12.159703,0.15412 -0.297344,0.18729 -0.88243,0.28035 -1.598731,0.25426 -0.621366,-0.0226 -1.705747,-0.0304 -2.409739,-0.0173 -1.263676,0.0236 -1.275406,0.0289 -0.920891,0.42065 0.197501,0.21824 1.762707,1.11504 3.478239,1.9929 1.715531,0.87786 3.838577,2.00962 4.717879,2.51503 0.879303,0.50542 3.082555,1.65978 4.896116,2.56525 1.813562,0.90547 3.665571,1.88061 4.115576,2.16698 1.311486,0.83459 5.636926,2.95307 6.029469,2.95307 0.240727,0 0.455659,-0.27362 0.652556,-0.83073 0.379268,-1.07312 0.747791,-1.29867 1.726805,-1.05688 l 0.765053,0.18894 0.125101,3.69707 c 0.0688,2.03339 0.181779,8.82301 0.251054,15.08804 0.06928,6.26503 0.183663,13.26638 0.254197,15.55856 l 0.128242,4.1676 -10.549298,10.42486 c -9.571162,9.45826 -10.53647,10.4708 -10.410942,10.92043 0.133127,0.47684 2.555683,2.90785 14.699105,14.75038 5.288942,5.15789 5.633355,5.45456 6.190307,5.33223 0.556039,-0.12212 0.858947,0.13571 5.296759,4.50863 2.588846,2.551 4.706994,4.71537 4.706994,4.80973 0,0.5973 -1.084466,-0.29468 -4.772216,-3.9252 -2.922596,-2.87724 -4.294908,-4.09675 -4.610054,-4.09675 l -0.448722,0 0.122037,13.43934 c 0.06712,7.39164 0.171213,15.34427 0.231317,17.67251 0.13159,5.09737 0.108622,5.17572 -1.771629,6.04384 -0.682454,0.31509 -1.735433,0.75712 -2.339954,0.9823 -2.786026,1.03776 -4.987264,1.88854 -5.995244,2.31717 -2.09835,0.8923 -3.099959,1.29177 -3.548265,1.41514 -0.247896,0.0682 -0.697539,0.32417 -0.999208,0.56877 -0.301667,0.24461 -0.953164,0.60719 -1.447771,0.80573 -0.494608,0.19855 -1.214037,0.49946 -1.598732,0.66869 -0.384695,0.16923 -1.508803,0.60477 -2.498019,0.96786 -2.905911,1.0666 -5.374938,2.10617 -5.673955,2.38899 -0.233883,0.22121 -0.170167,0.27974 0.399683,0.3672 0.689553,0.10582 9.447898,0.22951 31.153744,0.43996 6.649725,0.0645 14.698341,0.20189 17.885812,0.30536 8.81521,0.28618 9.728496,0.27275 10.554534,-0.15525 0.388053,-0.20106 0.959821,-0.68295 1.270594,-1.07085 0.83297,-1.0397 6.033584,-5.98941 6.293024,-5.98941 0.36545,0 11.75815,11.15499 11.75815,11.51279 0,0.1293 -1.12411,1.3406 -2.49802,2.6918 -1.37391,1.3513 -2.49802,2.593 -2.49802,2.7594 0,0.3426 7.16217,7.4326 8.6931,8.6055 0.84562,0.6479 4.84954,4.6897 6.09767,6.1554 0.2368,0.2781 0.60775,0.4496 0.97222,0.4496 0.50158,0 1.17956,-0.5983 4.55354,-4.0187 z m -10.14762,-12.2962 c -2.18561,-2.1757 -3.97383,-4.0262 -3.97383,-4.1123 0,-0.5006 0.88786,0.2332 4.2966,3.5511 2.4747,2.4088 3.99109,3.7383 4.35435,3.8177 0.69293,0.1514 0.60197,0.5459 -0.14614,0.6338 -0.48919,0.058 -1.04191,-0.4171 -4.53098,-3.8903 z m 12.41318,-3.3695 c 0.37286,-0.3847 0.76785,-0.6994 0.87777,-0.6994 0.10991,0 -0.10523,0.3147 -0.47809,0.6994 -0.37286,0.3847 -0.76786,0.6995 -0.87777,0.6995 -0.10991,0 0.10523,-0.3148 0.47809,-0.6995 z m -21.98257,-8.17755 c -3.13251,-3.12779 -5.72212,-5.81467 -5.75468,-5.97083 -0.0326,-0.15616 1.67608,-1.98257 3.79698,-4.05868 2.12091,-2.07611 6.3745,-6.29291 9.45243,-9.37067 3.07793,-3.07776 7.29641,-7.21464 9.3744,-9.19307 3.98395,-3.79307 5.30669,-5.11749 5.31079,-5.31753 10e-4,-0.0669 3.12751,-3.15443 6.94698,-6.86115 3.81947,-3.70673 7.34917,-7.22416 7.84378,-7.81652 0.4946,-0.59235 3.05757,-3.13151 5.69548,-5.64257 4.71684,-4.49003 6.84378,-6.61594 10.49346,-10.48839 1.49389,-1.58508 1.81842,-2.03711 1.72165,-2.3981 -0.0656,-0.24466 -0.12047,-0.7541 -0.12197,-1.13208 -0.002,-0.62826 -0.44901,-1.14275 -5.2031,-5.99524 -2.86021,-2.91941 -5.7604,-5.90324 -6.44489,-6.63074 -0.68448,-0.7275 -3.06557,-3.1626 -5.29131,-5.41132 -2.22573,-2.24872 -4.04679,-4.2288 -4.04679,-4.40018 0,-0.37633 0.76426,-1.17011 6.70068,-6.9595 2.53129,-2.4686 6.10992,-5.96005 7.9525,-7.75879 3.33754,-3.25813 3.35182,-3.26908 3.791,-2.91024 0.24246,0.19811 1.5119,1.44498 2.82098,2.77083 1.30907,1.32585 9.39644,9.515 17.97193,18.19811 8.57549,8.68312 16.99189,17.20632 18.70313,18.94046 l 3.11136,3.15298 -2.59794,2.54638 c -1.42887,1.40052 -6.64473,6.40561 -11.59081,11.12245 -4.94608,4.71683 -10.74648,10.25059 -12.88977,12.29725 -9.70993,9.27211 -11.02692,10.50512 -11.4059,10.67857 -0.34923,0.15985 -0.97565,-0.37485 -4.68242,-3.99683 -10.56609,-10.32439 -11.42147,-11.10979 -12.02412,-11.04051 -0.93845,0.10789 -0.8261,0.69 0.33433,1.73225 0.56964,0.51163 3.17969,2.99859 5.80011,5.52659 2.62042,2.52799 5.63616,5.40571 6.70163,6.39493 1.06547,0.98921 2.07544,2.00744 2.24437,2.26273 0.29316,0.44305 0.27017,0.50114 -0.50521,1.27652 l -0.81235,0.81235 -0.669,-0.45751 c -0.36795,-0.25163 -2.80229,-2.53471 -5.40965,-5.0735 -7.94375,-7.73487 -10.27575,-9.9118 -10.61786,-9.9118 -0.43819,0 -15.91668,14.93572 -15.91668,15.35854 0,0.18202 3.50722,3.8373 7.79381,8.12284 4.2866,4.28554 7.79055,7.92722 7.78654,8.09262 -0.009,0.36138 -1.37139,1.437 -1.7187,1.35667 -0.13494,-0.0312 -3.61488,-3.37556 -7.73321,-7.43189 -4.11833,-4.05633 -7.63235,-7.45601 -7.80895,-7.55483 -0.3625,-0.20287 -0.71688,-0.0533 -0.71902,0.30338 -8e-4,0.13091 2.09006,2.31981 4.64631,4.86424 2.55626,2.54442 5.98782,6.03209 7.62569,7.75038 3.39374,3.56037 3.32247,3.32917 1.52869,4.95915 -0.50022,0.45453 -2.73509,2.56282 -4.96638,4.68507 -2.23129,2.12226 -4.21092,3.85865 -4.39918,3.85865 -0.31817,0 -1.86302,-1.3878 -5.50579,-4.94608 -1.64336,-1.60525 -2.136,-1.76756 -2.67788,-0.88231 -0.47676,0.77888 -8.19437,8.11367 -8.6071,8.18017 -0.20858,0.034 -2.45954,-2.06983 -6.02835,-5.63325 z m 39.3847,-3.20567 -2.90899,-2.89 0.36204,-0.61288 c 0.23859,-0.40391 0.31992,-0.80467 0.23851,-1.17533 -0.10831,-0.49314 -0.005,-0.65857 0.83469,-1.34248 0.52702,-0.42901 1.20311,-1.04509 1.50243,-1.36906 0.29931,-0.32397 0.60579,-0.52745 0.68107,-0.45217 0.0753,0.0753 -0.327,0.57464 -0.89393,1.10971 -0.61794,0.58319 -1.03079,1.14439 -1.03079,1.40116 0,0.28671 0.98638,1.40575 2.98365,3.38491 1.83458,1.81795 3.03664,3.1677 3.12123,3.50474 0.19118,0.76173 -0.35482,1.33139 -1.27609,1.33139 -0.63995,0 -0.97261,-0.26604 -3.61382,-2.88999 z m 24.09849,-12.55375 c -3.13703,-2.89181 -8.32694,-8.02789 -8.32694,-8.24056 0,-0.30679 1.26169,-1.49573 1.58725,-1.49573 0.46851,0 4.93215,4.2476 8.37215,7.96693 1.32268,1.43008 1.63891,1.88654 1.53461,2.21515 -0.11876,0.37418 -1.04428,1.01795 -1.44205,1.00306 -0.0879,-0.003 -0.86415,-0.65527 -1.72502,-1.44885 z M 69.191086,978.62668 c -0.137391,-0.0554 -0.249801,-0.36431 -0.249801,-0.68638 0,-0.76757 0.283187,-1.24548 1.548771,-2.6137 l 1.049168,-1.13425 0,-6.11 c 0,-4.0144 0.06981,-6.11001 0.203554,-6.11001 0.282718,0 8.189788,7.79791 8.189788,8.07673 0,0.38792 -4.167225,4.30504 -6.289679,5.91218 -0.508041,0.3847 -1.458207,1.17157 -2.111477,1.74861 -1.117578,0.98718 -1.649524,1.19557 -2.340324,0.91682 z m 91.990764,-8.09052 c 0.21228,-0.29094 0.45939,-0.48427 0.54914,-0.42963 0.0897,0.0546 0.13471,0.11378 0.0999,0.13142 -0.0348,0.0176 -0.2819,0.21098 -0.54914,0.42963 l -0.48588,0.39755 0.38596,-0.52897 z M 52.454362,940.26125 c -3.077558,-3.02561 -7.146831,-6.99542 -9.042827,-8.82179 -1.895996,-1.82637 -3.447265,-3.42419 -3.447265,-3.55071 0,-0.28378 17.695679,-17.9522 18.061759,-18.03393 0.44046,-0.0983 0.586217,9.78244 0.283873,19.2436 -0.0281,0.8793 -0.02027,4.9676 0.01741,9.0851 0.03767,4.11751 -0.0093,7.50718 -0.104445,7.53261 -0.09512,0.0254 -2.690942,-2.42926 -5.768505,-5.45488 z m 6.212884,-32.41716 c -0.06531,-0.10568 0.488499,-0.82301 1.230696,-1.59408 1.94157,-2.0171 3.716416,-4.00144 3.92856,-4.39227 0.21185,-0.39028 2.027166,-2.21604 2.616764,-2.63181 0.219826,-0.15502 -0.07244,0.21069 -0.649485,0.8127 -0.577042,0.602 -1.049168,1.18424 -1.049168,1.29387 0,0.10964 -0.584536,0.77868 -1.298969,1.48676 -0.714433,0.70808 -1.29897,1.37753 -1.29897,1.48766 0,0.11013 -0.547997,0.75315 -1.217772,1.42893 -0.669775,0.67578 -1.321757,1.43549 -1.448851,1.68825 -0.25943,0.51594 -0.633915,0.70944 -0.812805,0.41999 z m 11.206743,-14.46734 c -0.0884,-0.76316 -0.208771,-17.02753 -0.141136,-19.07059 0.01423,-0.42975 0.627686,-0.8636 1.221121,-0.8636 0.343665,0 0.58525,-0.10607 0.58525,-0.25696 0,-0.14133 -0.91064,-1.19799 -2.023645,-2.34814 -1.717869,-1.7752 -2.0501,-2.22476 -2.198708,-2.97523 -0.09628,-0.48623 -0.309752,-1.03288 -0.474374,-1.21478 -0.40104,-0.44315 -0.377025,-0.74322 0.07902,-0.98728 0.289082,-0.15471 0.496862,-0.10923 0.880847,0.19281 0.276387,0.21741 0.612344,0.39528 0.746574,0.39528 0.25204,0 3.422701,2.99281 10.956361,10.3418 3.277076,3.19674 4.474806,4.24663 4.844623,4.24663 0.335144,0 0.866724,-0.3794 1.672641,-1.19382 0.649751,-0.6566 1.226679,-1.14851 1.282061,-1.09313 0.05538,0.0554 -0.61183,0.81743 -1.482696,1.69343 -1.180971,1.18794 -1.717403,1.59273 -2.110691,1.59273 -0.290016,0 -0.775183,0.19498 -1.078151,0.4333 -0.367039,0.28871 -0.634913,0.37207 -0.802779,0.2498 -0.420889,-0.30656 -5.477152,-4.87656 -7.24906,-6.55192 -0.914559,-0.86472 -1.703989,-1.53107 -1.754289,-1.48077 -0.273083,0.27308 0.225635,1.40661 0.7866,1.78785 1.013626,0.68888 7.318219,7.02906 7.318219,7.35952 0,0.34361 -10.374193,10.79223 -10.715352,10.79223 -0.121496,0 -0.275589,-0.47212 -0.342436,-1.04916 z m 50.882571,-10.39176 c -7.73509,-7.67466 -13.67264,-13.70722 -14.21116,-14.43855 -0.32375,-0.43965 -1.18325,-1.38131 -1.91,-2.09256 -0.72676,-0.71126 -1.32138,-1.38636 -1.32138,-1.50023 0,-0.11386 2.38302,-2.58878 5.29561,-5.49981 l 5.29562,-5.29279 4.19685,4.19329 c 2.30827,2.30631 4.19686,4.29256 4.19686,4.4139 0,0.4305 0.76975,0.93284 1.24619,0.81327 0.4937,-0.12392 3.32604,-2.84112 4.64346,-4.45471 0.43653,-0.53466 1.16592,-1.30948 1.62087,-1.7218 l 0.82717,-0.74968 0.67731,0.55025 c 0.37252,0.30263 2.96927,2.87477 5.77055,5.71587 l 5.09323,5.16564 -6.21611,6.22492 c -3.41886,3.42371 -7.42894,7.46145 -8.91129,8.97275 -1.48235,1.5113 -2.81376,2.74782 -2.95869,2.74782 -0.14494,0 -1.64573,-1.37141 -3.33509,-3.04758 z m 34.98163,-1.66804 c -1.57918,-1.9045 -3.46609,-3.90706 -7.8469,-8.32787 -2.47998,-2.50263 -4.53813,-4.6834 -4.57367,-4.84616 -0.17637,-0.80779 1.30882,0.30715 2.20252,1.65343 0.1645,0.24781 2.78586,2.96355 5.82524,6.035 3.03939,3.07144 5.52616,5.71862 5.52616,5.88262 0,0.62983 -0.39731,0.49065 -1.13335,-0.39702 z m -67.412282,-3.79828 c 0,-0.25548 3.85286,-4.07611 4.110498,-4.07611 0.113542,0 0.60654,-0.40799 1.095553,-0.90663 0.489014,-0.49865 1.1589,-1.09446 1.488639,-1.32404 0.329738,-0.22957 -0.454066,0.60557 -1.741787,1.85588 -3.136993,3.04585 -4.952903,4.6777 -4.952903,4.4509 z m 25.286142,-24.25008 c -0.0645,-0.1044 0.0755,-0.293 0.31116,-0.41912 0.23566,-0.12612 1.14683,-0.93999 2.02483,-1.8086 0.878,-0.86861 1.72938,-1.57929 1.89196,-1.57929 0.48129,0 0.18292,0.4758 -0.50561,0.80627 -0.35142,0.16867 -1.24672,0.95555 -1.98956,1.74862 -1.38203,1.47547 -1.52907,1.58173 -1.73278,1.25212 z m 12.26002,-3.32387 c -1.69043,-1.7127 -3.23007,-3.19925 -3.42142,-3.30345 -0.49138,-0.26757 -1.42543,0.24576 -2.69472,1.48096 -1.63211,1.58825 -1.39259,1.02389 0.36156,-0.85193 0.87007,-0.93042 1.58195,-1.76227 1.58195,-1.84854 0,-0.0863 0.11332,-0.15686 0.25182,-0.15686 0.32622,0 7.54199,7.2196 7.54199,7.54599 0,0.63223 -0.7691,0.0235 -3.62118,-2.86617 z m -23.41135,97.50407 c 0.0425,-0.12918 -0.22023,-0.37795 -0.58387,-0.55282 -0.36364,-0.17487 -2.819251,-2.4298 -5.45691,-5.01096 -2.637658,-2.58116 -4.863393,-4.69301 -4.946077,-4.69301 -0.521578,0 0.39587,1.03707 4.917601,5.55881 4.107926,4.10793 5.155456,5.05514 5.529946,5.0004 0.25411,-0.0371 0.4968,-0.17323 0.53931,-0.30242 z M 89.92464,935.34666 c 0,-0.30522 -6.466523,-6.74785 -6.772872,-6.74785 -0.121869,0 -0.22158,0.0734 -0.22158,0.16319 0,0.2403 6.552123,6.83127 6.791011,6.83127 0.111894,0 0.203441,-0.11098 0.203441,-0.24661 z"
         id="path4751"
         inkscape:connector-curvature="0"
         sodipodi:nodetypes="cscssssccccccsssssssscssscsssssssssscccscssssssssssscscscssssccscsscsssssssccscccccscccccscccssccsssccccsscssssssssssssscssssccssscscsssscscscssscssscssscsssscscsssssscssssscssssccscssscsssscsssscssscssssscsscssscscsssssscsscscssccssscssssscscscccsssssssscssscssscsssscssssscccssscsssssscsccsssssccssssssscssscssssccsssssssssscssscssssscscsssssccsccssssssscssccsccscsssssssssscscsscsssssccccccccssscsscscsscssssssccssssscscsssscsscsssssscscssscsscsscsscsssssscssssssscsscssssscscsssssscssssccsssss" />
    </g>
  </g>
</svg>
